<svg viewBox="0 0 420 54" fill="none" xmlns="http://www.w3.org/2000/svg">
    <path
        d="M24.0232 7.14554C24.116 6.25081 25.3635 6.11534 25.6462 6.9693L30.5686 21.8388C30.6718 22.1507 30.9483 22.373 31.275 22.4069L46.8545 24.0231C47.7493 24.1159 47.8847 25.3634 47.0308 25.6461L32.1612 30.5685C31.8494 30.6717 31.6271 30.9482 31.5932 31.2749L29.977 46.8544C29.8842 47.7492 28.6367 47.8846 28.354 47.0307L23.4316 32.1611C23.3284 31.8493 23.0519 31.627 22.7251 31.5931L7.14565 29.9769C6.25092 29.8841 6.11546 28.6365 6.96942 28.3538L21.8389 23.4315C22.1508 23.3282 22.3731 23.0518 22.407 22.725L24.0232 7.14554Z"
        fill="#FFDE91" />
    <path
        d="M396.637 11.7191C397.044 10.917 398.258 11.2373 398.216 12.1359L397.615 25.0178C397.6 25.3459 397.778 25.6525 398.071 25.8012L409.571 31.6375C410.373 32.0446 410.053 33.2579 409.154 33.216L396.272 32.6153C395.944 32.6 395.637 32.7785 395.489 33.0714L389.652 44.571C389.245 45.3731 388.032 45.0528 388.074 44.1543L388.675 31.2724C388.69 30.9443 388.511 30.6376 388.218 30.489L376.719 24.6526C375.917 24.2455 376.237 23.0322 377.136 23.0741L390.018 23.6749C390.346 23.6902 390.652 23.5116 390.801 23.2187L396.637 11.7191Z"
        fill="#FFDE91" />
    <circle cx="36.7544" cy="5.29561" r="3.97686" transform="rotate(-17.7512 36.7544 5.29561)" fill="#817187" />
    <circle cx="415.988" cy="18.5843" r="3.19075" transform="rotate(-17.7512 415.988 18.5843)" fill="#FCF2FB" />
    <circle cx="400.954" cy="41.7405" r="1.35817" transform="rotate(-17.7512 400.954 41.7405)" fill="#FCF2FB" />
    <circle cx="8" cy="17" r="2.38611" transform="rotate(-17.7512 8 17)" fill="#E57CD8" />
</svg>